PathFileType	4	(X/Y/Z)	output.trc
DataRate	CameraRate	NumFrames	NumMarkers	Units	OrigDataRate	OrigDataStartFrame	OrigNumFrames
100	100	15	23	m	100	1547	6185
Frame#	Time	C7			T8			EL			EM			US			RS			AA			Fore_Clus_1			Fore_Clus_2			Fore_Clus_3			Fore_Clus_4			Hum_Clus_1			Hum_Clus_2			Hum_Clus_3			Hum_Clus_4			Thor_Clus_1			Thor_Clus_2			Thor_Clus_3			Thor_Clus_4			IJ			PX			GH			Thor_Clus_5		
		X1	Y1	Z1	X2	Y2	Z2	X3	Y3	Z3	X4	Y4	Z4	X5	Y5	Z5	X6	Y6	Z6	X7	Y7	Z7	X8	Y8	Z8	X9	Y9	Z9	X10	Y10	Z10	X11	Y11	Z11	X12	Y12	Z12	X13	Y13	Z13	X14	Y14	Z14	X15	Y15	Z15	X16	Y16	Z16	X17	Y17	Z17	X18	Y18	Z18	X19	Y19	Z19	X20	Y20	Z20	X21	Y21	Z21	X22	Y22	Z22	X23	Y23	Z23
1546	15.460000	-0.068062	1.474211	-0.100760	-0.093426	1.239722	-0.130875	-0.231720	1.069452	0.062018	-0.201443	1.067845	0.004126	-0.227125	0.820290	0.085898	-0.189274	0.820239	0.124571	-0.196543	1.384586	0.058183	-0.255555	0.891659	0.093956	-0.252799	0.838232	0.104866	-0.237462	0.843532	0.127834	-0.230948	0.901016	0.130755	-0.218352	1.166258	0.103348	-0.258612	1.180231	0.060716	-0.262671	1.243024	0.069836	-0.217404	1.240283	0.107855	0.067379	1.376970	0.015852	0.035931	1.329435	0.077952	0.031577	1.374593	0.042206	0.087548	1.332537	0.039423	0.003089	1.385828	-0.015106	0.038829	1.174892	0.038403	-0.171418	1.370600	0.034787	0.026814	1.349016	0.067213
1547	15.470000	-0.068017	1.474241	-0.100615	-0.093496	1.239765	-0.130736	-0.231854	1.069690	0.061269	-0.201805	1.068308	0.003252	-0.228588	0.820415	0.082656	-0.190644	0.819735	0.121231	-0.196555	1.384677	0.058316	-0.256535	0.891920	0.091470	-0.254069	0.838250	0.101965	-0.238710	0.843371	0.124938	-0.231782	0.900688	0.128377	-0.218196	1.166306	0.102962	-0.258671	1.180500	0.060589	-0.262658	1.243251	0.070018	-0.217280	1.240434	0.107639	0.067400	1.376951	0.016014	0.035878	1.329364	0.078110	0.031515	1.374481	0.042345	0.087535	1.332487	0.039600	0.003083	1.385821	-0.014957	0.038714	1.174867	0.038551	-0.171474	1.370913	0.035068	0.026783	1.349002	0.067358
1548	15.480000	-0.067965	1.474263	-0.100486	-0.093562	1.239799	-0.130598	-0.231966	1.069912	0.060534	-0.202130	1.068749	0.002403	-0.229936	0.820572	0.079619	-0.191907	0.819312	0.118098	-0.196562	1.384774	0.058439	-0.257356	0.892136	0.089277	-0.255262	0.838441	0.099232	-0.239751	0.843192	0.122262	-0.232447	0.900450	0.126154	-0.218090	1.166381	0.102592	-0.258739	1.180736	0.060453	-0.262627	1.243475	0.070149	-0.217051	1.240375	0.107657	0.067394	1.376892	0.016142	0.035838	1.329327	0.078257	0.031556	1.374490	0.042523	0.087509	1.332436	0.039773	0.003083	1.385811	-0.014818	0.038599	1.174840	0.038703	-0.171525	1.371208	0.035326	0.026765	1.348986	0.067491
1549	15.490000	-0.067911	1.474275	-0.100369	-0.093626	1.239822	-0.130461	-0.232037	1.070107	0.059819	-0.202396	1.069155	0.001584	-0.231168	0.820738	0.076780	-0.193068	0.818940	0.115165	-0.196566	1.384867	0.058554	-0.258100	0.892297	0.087266	-0.256373	0.838620	0.096611	-0.240753	0.843027	0.119707	-0.233079	0.900256	0.124034	-0.218011	1.166414	0.102230	-0.258819	1.180917	0.060302	-0.262609	1.243661	0.070228	-0.216930	1.240413	0.107533	0.067412	1.376850	0.016280	0.035729	1.329246	0.078491	0.031525	1.374451	0.042701	0.087479	1.332382	0.039904	0.003085	1.385795	-0.014687	0.038490	1.174812	0.038857	-0.171573	1.371476	0.035559	0.026759	1.348953	0.067611
1550	15.500000	-0.067856	1.474278	-0.100264	-0.093680	1.239834	-0.130331	-0.232053	1.070264	0.059134	-0.202590	1.069517	0.000806	-0.232280	0.820894	0.074126	-0.194124	0.818598	0.112430	-0.196567	1.384950	0.058659	-0.258931	0.892550	0.085156	-0.257330	0.838758	0.094331	-0.241614	0.842847	0.117256	-0.233712	0.900076	0.122027	-0.217961	1.166429	0.101818	-0.258855	1.181097	0.060075	-0.262585	1.243819	0.070227	-0.216838	1.240459	0.107373	0.067412	1.376807	0.016412	0.035689	1.329202	0.078654	0.031597	1.374433	0.042867	0.087457	1.332335	0.040026	0.003090	1.385775	-0.014566	0.038391	1.174781	0.039005	-0.171616	1.371710	0.035765	0.026738	1.348922	0.067745
1551	15.510000	-0.067798	1.474276	-0.100171	-0.093717	1.239840	-0.130216	-0.232004	1.070377	0.058485	-0.202700	1.069824	0.000074	-0.233262	0.821030	0.071646	-0.195074	0.818271	0.109888	-0.196565	1.385018	0.058747	-0.259470	0.892752	0.083258	-0.258222	0.838786	0.091985	-0.242438	0.842726	0.115057	-0.234173	0.899823	0.120134	-0.217886	1.166400	0.101416	-0.258860	1.181207	0.059823	-0.262562	1.243899	0.070183	-0.216782	1.240459	0.107181	0.067431	1.376749	0.016573	0.035655	1.329163	0.078766	0.031610	1.374374	0.042978	0.087443	1.332282	0.040136	0.003101	1.385751	-0.014455	0.038307	1.174748	0.039141	-0.171652	1.371902	0.035947	0.026722	1.348900	0.067850
1552	15.520000	-0.067747	1.474267	-0.100084	-0.093740	1.239837	-0.130116	-0.231881	1.070440	0.057877	-0.202715	1.070073	-0.000604	-0.234119	0.821131	0.069339	-0.195920	0.817941	0.107536	-0.196560	1.385062	0.058826	-0.260017	0.892921	0.081401	-0.258962	0.838916	0.089771	-0.243158	0.842654	0.112746	-0.234687	0.899637	0.118317	-0.217716	1.166375	0.100995	-0.258833	1.181289	0.059555	-0.262501	1.243944	0.070112	-0.216522	1.240217	0.107126	0.067429	1.376681	0.016675	0.035613	1.329125	0.078881	0.031562	1.374359	0.043076	0.087413	1.332227	0.040263	0.003114	1.385725	-0.014354	0.038244	1.174713	0.039261	-0.171681	1.372052	0.036105	0.026761	1.348944	0.068071
1553	15.530000	-0.067696	1.474255	-0.100005	-0.093739	1.239831	-0.130040	-0.231682	1.070450	0.057317	-0.202635	1.070258	-0.001224	-0.234840	0.821194	0.067194	-0.196656	0.817603	0.105371	-0.196554	1.385081	0.058886	-0.260477	0.893025	0.079719	-0.259562	0.838894	0.087648	-0.243819	0.842472	0.110780	-0.235147	0.899404	0.116671	-0.217549	1.166258	0.100651	-0.258716	1.181290	0.059274	-0.262412	1.243910	0.070054	-0.216456	1.240257	0.106822	0.067423	1.376628	0.016764	0.035609	1.329096	0.078951	0.031612	1.374327	0.043195	0.087406	1.332188	0.040350	0.003131	1.385696	-0.014265	0.038204	1.174677	0.039356	-0.171700	1.372155	0.036243	0.026742	1.348909	0.068144
1554	15.540000	-0.067653	1.474240	-0.099930	-0.093718	1.239821	-0.129987	-0.231406	1.070408	0.056807	-0.202457	1.070382	-0.001783	-0.235429	0.821213	0.065214	-0.197284	0.817252	0.103393	-0.196546	1.385069	0.058934	-0.260762	0.893094	0.078007	-0.260130	0.838971	0.085625	-0.244505	0.842352	0.108859	-0.235468	0.899151	0.115085	-0.217297	1.166123	0.100328	-0.258536	1.181226	0.059011	-0.262283	1.243822	0.069991	-0.216244	1.240091	0.106702	0.067468	1.376611	0.016869	0.035671	1.329162	0.078989	0.031612	1.374301	0.043262	0.087394	1.332159	0.040435	0.003151	1.385667	-0.014185	0.038192	1.174640	0.039425	-0.171709	1.372212	0.036361	0.026738	1.348888	0.068220
1555	15.550000	-0.067620	1.474224	-0.099859	-0.093675	1.239810	-0.129960	-0.231058	1.070316	0.056350	-0.202188	1.070445	-0.002278	-0.235886	0.821190	0.063398	-0.197802	0.816888	0.101600	-0.196537	1.385023	0.058969	-0.261001	0.893101	0.076492	-0.260581	0.838904	0.083829	-0.244894	0.841992	0.107031	-0.235774	0.898836	0.113586	-0.217026	1.165942	0.100056	-0.258307	1.181098	0.058792	-0.262127	1.243659	0.069929	-0.216063	1.239903	0.106597	0.067459	1.376568	0.016917	0.035676	1.329077	0.079083	0.031602	1.374262	0.043329	0.087399	1.332132	0.040520	0.003172	1.385638	-0.014117	0.038208	1.174603	0.039464	-0.171708	1.372226	0.036463	0.026725	1.348846	0.068279
1556	15.560000	-0.067592	1.474209	-0.099792	-0.093607	1.239799	-0.129961	-0.230646	1.070180	0.055947	-0.201837	1.070452	-0.002710	-0.236210	0.821130	0.061745	-0.198206	0.816516	0.099991	-0.196526	1.384946	0.058988	-0.261106	0.893039	0.075082	-0.260891	0.838822	0.082132	-0.245205	0.841747	0.105390	-0.236058	0.898557	0.112332	-0.216729	1.165751	0.099836	-0.258049	1.180910	0.058585	-0.261906	1.243452	0.069868	-0.215850	1.239704	0.106501	0.067493	1.376573	0.017008	0.035682	1.329025	0.079125	0.031605	1.374223	0.043369	0.087400	1.332100	0.040583	0.003197	1.385610	-0.014061	0.038254	1.174566	0.039470	-0.171693	1.372200	0.036553	0.026743	1.348832	0.068335
1557	15.570000	-0.067580	1.474192	-0.099727	-0.093523	1.239785	-0.129983	-0.230178	1.070007	0.055598	-0.201412	1.070411	-0.003081	-0.236415	0.821035	0.060263	-0.198504	0.816140	0.098566	-0.196513	1.384837	0.059001	-0.261083	0.892949	0.073846	-0.261061	0.838672	0.080576	-0.245602	0.841537	0.103961	-0.236111	0.898249	0.111023	-0.216383	1.165483	0.099606	-0.257778	1.180684	0.058399	-0.261679	1.243186	0.069792	-0.215574	1.239432	0.106401	0.067509	1.376557	0.017033	0.035705	1.328996	0.079154	0.031610	1.374208	0.043417	0.087416	1.332093	0.040619	0.003220	1.385583	-0.014016	0.038329	1.174530	0.039446	-0.171669	1.372141	0.036631	0.026800	1.348642	0.068363
1558	15.580000	-0.067573	1.474177	-0.099668	-0.093420	1.239774	-0.130031	-0.229666	1.069805	0.055301	-0.200930	1.070331	-0.003391	-0.236499	0.820917	0.058950	-0.198691	0.815772	0.097323	-0.196499	1.384702	0.058998	-0.261023	0.892843	0.072658	-0.261165	0.838533	0.079216	-0.245663	0.841283	0.102649	-0.236094	0.897891	0.110022	-0.215984	1.165243	0.099421	-0.257327	1.180403	0.058218	-0.261377	1.242914	0.069708	-0.215308	1.239155	0.106319	0.067513	1.376557	0.017069	0.035732	1.328957	0.079161	0.031633	1.374187	0.043426	0.087448	1.332081	0.040632	0.003247	1.385559	-0.013984	0.038429	1.174496	0.039392	-0.171632	1.372053	0.036700	0.026802	1.348617	0.068379
1559	15.590000	-0.067578	1.474162	-0.099616	-0.093303	1.239760	-0.130098	-0.229122	1.069584	0.055054	-0.200404	1.070219	-0.003646	-0.236478	0.820780	0.057814	-0.198777	0.815417	0.096261	-0.196482	1.384544	0.058988	-0.260879	0.892708	0.071689	-0.261153	0.838356	0.078028	-0.245642	0.840904	0.101524	-0.236020	0.897537	0.109105	-0.215538	1.164953	0.099251	-0.256629	1.180048	0.057986	-0.261077	1.242593	0.069640	-0.215030	1.238905	0.106271	0.067521	1.376522	0.017069	0.035796	1.328925	0.079099	0.031644	1.374148	0.043438	0.087496	1.332080	0.040636	0.003274	1.385536	-0.013965	0.038553	1.174464	0.039312	-0.171586	1.371946	0.036760	0.026840	1.348577	0.068395
1560	15.600000	-0.067592	1.474146	-0.099572	-0.093178	1.239745	-0.130180	-0.228557	1.069352	0.054857	-0.199851	1.070086	-0.003848	-0.236364	0.820634	0.056854	-0.198768	0.815086	0.095378	-0.196463	1.384370	0.058969	-0.260617	0.892547	0.070928	-0.260991	0.838238	0.077020	-0.245580	0.840638	0.100552	-0.235927	0.897224	0.108408	-0.215062	1.164694	0.099115	-0.256202	1.179738	0.057887	-0.260793	1.242277	0.069601	-0.214705	1.238659	0.106183	0.067573	1.376529	0.017078	0.035862	1.328900	0.079017	0.031687	1.374123	0.043443	0.087551	1.332085	0.040625	0.003302	1.385516	-0.013959	0.038697	1.174437	0.039210	-0.171532	1.371826	0.036812	0.026856	1.348489	0.068336
